<svg width="24" height="34" viewBox="0 0 24 34" fill="none" xmlns="http://www.w3.org/2000/svg">
<g filter="url(#filter0_f_1_232)">
<path d="M10.9463 26.0068C10.7282 25.7397 10.4959 25.5008 10.3006 25.3426C10.1053 25.1843 9.96293 25.1197 9.90488 25.1629L3.33884 30.0494C3.28079 30.0926 3.31178 30.2401 3.425 30.4595C3.53822 30.6788 3.72439 30.952 3.94255 31.2191C4.16071 31.4861 4.393 31.725 4.5883 31.8832C4.78361 32.0415 4.92595 32.1061 4.984 32.0629L11.55 27.1764C11.6081 27.1332 11.5771 26.9857 11.4639 26.7663C11.3507 26.547 11.1645 26.2738 10.9463 26.0068Z" fill="url(#paint0_linear_1_232)"/>
</g>
<g filter="url(#filter1_d_1_232)">
<path d="M2.39781 1.78954C2.58217 1.45716 2.98563 1 3.64 1C4.29436 1 4.69782 1.45716 4.88218 1.78954C5.07934 2.14499 5.16 2.55884 5.16 2.9375V31.0625C5.16 31.4412 5.07934 31.855 4.88218 32.2105C4.69781 32.5429 4.29435 33 3.64 33C2.98564 33 2.58218 32.5429 2.39781 32.2105C2.20065 31.855 2.12 31.4412 2.12 31.0625V2.9375C2.12 2.55884 2.20065 2.14499 2.39781 1.78954Z" fill="url(#paint1_linear_1_232)"/>
</g>
<path fill-rule="evenodd" clip-rule="evenodd" d="M2.39781 1.78954C2.58217 1.45716 2.98563 1 3.64 1C4.29436 1 4.69782 1.45716 4.88218 1.78954C5.07934 2.14499 5.16 2.55884 5.16 2.9375V31.0625C5.16 31.4412 5.07934 31.855 4.88218 32.2105C4.69781 32.5429 4.29435 33 3.64 33C2.98564 33 2.58218 32.5429 2.39781 32.2105C2.20065 31.855 2.12 31.4412 2.12 31.0625V2.9375C2.12 2.55884 2.20065 2.14499 2.39781 1.78954ZM3.2723 2.27459C3.36982 2.09877 3.50208 2 3.64 2C3.77791 2 3.91017 2.09877 4.00769 2.27459C4.10521 2.4504 4.16 2.68886 4.16 2.9375V31.0625C4.16 31.3111 4.10521 31.5496 4.00769 31.7254C3.91017 31.9012 3.77791 32 3.64 32C3.50208 32 3.36982 31.9012 3.2723 31.7254C3.17478 31.5496 3.12 31.3111 3.12 31.0625V2.9375C3.12 2.68886 3.17478 2.4504 3.2723 2.27459Z" fill="url(#paint2_linear_1_232)"/>
<path fill-rule="evenodd" clip-rule="evenodd" d="M5.8243 17.9253C4.61527 17.9273 3.43392 18.1645 2.39052 18.6071C2.08167 18.7381 1.7277 18.7055 1.44797 18.5203C1.16823 18.3351 1 18.022 1 17.6865V5.59909C1 5.16629 1.27842 4.78261 1.68987 4.64839C3.00163 4.22048 4.40421 4.0012 5.81734 4C5.8396 3.99998 5.86187 4.00071 5.88409 4.00217C7.57694 4.11399 9.22872 4.49486 10.7376 5.12641C12.0826 5.67834 13.5686 6.01185 15.1013 6.10084C16.8832 6.13178 18.6497 5.87315 20.2855 5.34526C20.5429 5.23955 20.8187 5.18832 21.0909 5.18832C21.3835 5.18832 21.6804 5.24754 21.954 5.37001C22.2229 5.49035 22.4774 5.67596 22.6713 5.93139C22.8675 6.19007 22.9925 6.51059 22.9998 6.86107L23 6.88183V17.4085C22.9985 17.784 22.8617 18.126 22.6462 18.3963C22.4338 18.6627 22.155 18.8496 21.8639 18.9633C21.8485 18.9693 21.8329 18.975 21.8172 18.9802C19.6988 19.6888 17.4157 20.0343 15.1203 19.9973C15.1105 19.9972 15.1007 19.9969 15.0909 19.9964C13.0784 19.9049 11.1073 19.4834 9.30656 18.7544L9.29749 18.7507C8.22711 18.3051 7.047 18.0232 5.8243 17.9253Z" fill="url(#paint3_linear_1_232)"/>
<path fill-rule="evenodd" clip-rule="evenodd" d="M5.81818 5C7.40724 5.10496 8.95142 5.46243 10.3545 6.05016C11.8135 6.64931 13.4171 7.00692 15.0636 7.10032C16.9748 7.13573 18.874 6.8571 20.6364 6.28275C20.7746 6.22089 20.9313 6.18832 21.0909 6.18832C21.2505 6.18832 21.4073 6.22089 21.5455 6.28275C21.6815 6.34364 21.7949 6.43083 21.8746 6.53583C21.9543 6.64082 21.9975 6.76003 22 6.88183V17.4046C21.9995 17.5347 21.9525 17.6622 21.8643 17.773C21.776 17.8837 21.6499 17.9733 21.5 18.0319C19.4925 18.7034 17.3223 19.0327 15.1364 18.9974C13.2319 18.9108 11.3729 18.5121 9.68182 17.8275C8.49815 17.3347 7.20058 17.0281 5.86364 16.9253C4.88217 16.9231 3.91177 17.0608 3 17.3293C2.65756 17.4301 2.32338 17.5493 2 17.6865V5.59909C3.20877 5.20477 4.50676 5.00111 5.81818 5ZM5.8243 17.9253C4.61527 17.9273 3.43392 18.1645 2.39052 18.6071C2.08167 18.7381 1.7277 18.7055 1.44797 18.5203C1.16823 18.3351 1 18.022 1 17.6865V5.59909C1 5.16629 1.27842 4.78261 1.68987 4.64839C3.00163 4.22048 4.40421 4.0012 5.81734 4C5.8396 3.99998 5.86187 4.00071 5.88409 4.00217C7.57694 4.11399 9.22872 4.49486 10.7376 5.12641C12.0826 5.67834 13.5686 6.01185 15.1013 6.10084C16.8832 6.13178 18.6497 5.87315 20.2855 5.34526C20.5429 5.23955 20.8187 5.18832 21.0909 5.18832C21.3835 5.18832 21.6804 5.24754 21.954 5.37001C22.2229 5.49035 22.4774 5.67596 22.6713 5.93139C22.8675 6.19007 22.9925 6.51059 22.9998 6.86107L23 6.88183V17.4085C22.9985 17.784 22.8617 18.126 22.6462 18.3963C22.4338 18.6627 22.155 18.8496 21.8639 18.9633C21.8485 18.9693 21.8329 18.975 21.8172 18.9802C19.6988 19.6888 17.4157 20.0343 15.1203 19.9973C15.1105 19.9972 15.1007 19.9969 15.0909 19.9964C13.0784 19.9049 11.1073 19.4834 9.30656 18.7544L9.29749 18.7507C8.22711 18.3051 7.047 18.0232 5.8243 17.9253Z" fill="#66C4FF"/>
<defs>
<filter id="filter0_f_1_232" x="2.31021" y="24.1498" width="10.2685" height="8.92624" filterUnits="userSpaceOnUse" color-interpolation-filters="sRGB">
<feFlood flood-opacity="0" result="BackgroundImageFix"/>
<feBlend mode="normal" in="SourceGraphic" in2="BackgroundImageFix" result="shape"/>
<feGaussianBlur stdDeviation="0.5" result="effect1_foregroundBlur_1_232"/>
</filter>
<filter id="filter1_d_1_232" x="1.12" y="0" width="5.04001" height="34" filterUnits="userSpaceOnUse" color-interpolation-filters="sRGB">
<feFlood flood-opacity="0" result="BackgroundImageFix"/>
<feColorMatrix in="SourceAlpha" type="matrix" values="0 0 0 0 0 0 0 0 0 0 0 0 0 0 0 0 0 0 127 0" result="hardAlpha"/>
<feOffset/>
<feGaussianBlur stdDeviation="0.5"/>
<feColorMatrix type="matrix" values="0 0 0 0 0 0 0 0 0 0 0 0 0 0 0 0 0 0 0.25 0"/>
<feBlend mode="normal" in2="BackgroundImageFix" result="effect1_dropShadow_1_232"/>
<feBlend mode="normal" in="SourceGraphic" in2="effect1_dropShadow_1_232" result="shape"/>
</filter>
<linearGradient id="paint0_linear_1_232" x1="10.9463" y1="26.0068" x2="4.19253" y2="31.525" gradientUnits="userSpaceOnUse">
<stop stop-color="#A5A5A5" stop-opacity="0.03"/>
<stop offset="1" stop-color="#868686"/>
</linearGradient>
<linearGradient id="paint1_linear_1_232" x1="3.64" y1="2" x2="3.64" y2="32" gradientUnits="userSpaceOnUse">
<stop stop-color="white"/>
<stop offset="1" stop-color="#DADADA"/>
</linearGradient>
<linearGradient id="paint2_linear_1_232" x1="3.64" y1="1" x2="3.64" y2="33" gradientUnits="userSpaceOnUse">
<stop stop-color="#BEBEBE"/>
<stop offset="0.838542" stop-color="#BABABA"/>
<stop offset="1" stop-color="#989898"/>
</linearGradient>
<linearGradient id="paint3_linear_1_232" x1="2.33325" y1="11.6818" x2="22.3333" y2="11.6818" gradientUnits="userSpaceOnUse">
<stop stop-color="#A8DEFF"/>
<stop offset="1" stop-color="#83CFFF"/>
</linearGradient>
</defs>
</svg>
